<?xml version="1.0" encoding="UTF-8" standalone="no"?>
<!-- Created with Inkscape (http://www.inkscape.org/) -->

<svg
   width="167.10342mm"
   height="165.9073mm"
   viewBox="0 0 167.10342 165.9073"
   version="1.1"
   id="svg732"
   xml:space="preserve"
   inkscape:export-filename="empty-logo-finish.png"
   inkscape:export-xdpi="96"
   inkscape:export-ydpi="96"
   xmlns:inkscape="http://www.inkscape.org/namespaces/inkscape"
   xmlns:sodipodi="http://sodipodi.sourceforge.net/DTD/sodipodi-0.dtd"
   xmlns="http://www.w3.org/2000/svg"
   xmlns:svg="http://www.w3.org/2000/svg"><sodipodi:namedview
     id="namedview734"
     pagecolor="#ffffff"
     bordercolor="#666666"
     borderopacity="1.0"
     inkscape:showpageshadow="2"
     inkscape:pageopacity="0.0"
     inkscape:pagecheckerboard="0"
     inkscape:deskcolor="#d1d1d1"
     inkscape:document-units="mm"
     showgrid="false" /><defs
     id="defs729" /><g
     inkscape:label="Layer 1"
     inkscape:groupmode="layer"
     id="layer1"
     transform="translate(275.54191,-57.247382)"><path
       style="fill:#444870;stroke:none;stroke-width:0.493848"
       d="m -213.88001,71.194884 c 2.24824,7.380699 6.23915,14.062259 8.46929,21.495669 3.6845,12.278617 3.68831,24.954427 -1.27517,36.849727 -1.7708,4.24334 -4.28969,7.95237 -6.71761,11.77142 15.26884,-12.54221 14.45971,-36.25397 8.36256,-53.739176 -1.71549,-4.920976 -4.08859,-14.073962 -8.83907,-16.37764 m 14.77229,1.02361 v 0.511795 l 10.00703,0.511795 h 16.67842 c -9.0397,19.696687 -18.35149,42.635136 -7.70828,63.975206 5.68781,11.40449 16.57928,16.33672 25.29208,24.48203 4.17245,3.90096 7.2899,9.69403 4.38022,15.43748 -3.40238,6.71586 -10.22196,9.64235 -16.72225,11.62456 -14.81137,4.51715 -32.26364,4.71418 -47.17604,0.56502 -5.38284,-1.49804 -10.77805,-3.54524 -15.23452,-7.22665 -2.09148,-1.72784 -4.24061,-4.04476 -4.54987,-7.00912 -0.2049,-1.96429 0.56658,-3.83698 1.19989,-5.62983 -0.97688,0.5548 -1.93518,1.08248 -2.76004,1.89009 -2.91634,2.85536 -1.8799,6.04081 0.47223,8.85112 3.46816,4.14353 8.05948,7.06336 12.77138,9.27434 17.54518,8.23285 38.61002,8.88284 56.70656,2.33126 7.42999,-2.69002 16.63931,-7.29112 19.72245,-15.69336 2.31831,-6.3182 -1.0517,-12.5893 -5.42953,-16.69191 -8.97156,-8.40685 -19.9669,-13.07908 -26.03165,-24.76403 -6.75188,-13.00847 -6.13193,-28.78477 -1.38669,-42.479552 2.53702,-7.321836 6.41452,-13.867256 9.31322,-20.983854 z"
       id="path867" /><path
       style="fill:#3a4465;stroke:none;stroke-width:0.264583"
       d="m -193.78578,220.77343 v -2.11666 c -9.8843,0 -19.67812,-1.97432 -28.83958,-5.66235 -8.81645,-3.54939 -17.34873,-8.80692 -24.34167,-15.25773 -6.67755,-6.15976 -12.50764,-13.12598 -16.84205,-21.14867 -12.573,-23.27196 -12.87727,-51.53157 -0.26458,-74.87708 4.35504,-8.061061 10.14068,-15.165388 16.84205,-21.39024 8.16742,-7.586398 18.28403,-13.309335 28.83958,-16.828293 8.33993,-2.780242 17.3826,-4.452937 26.19375,-4.3688 25.91277,0.248179 50.57246,12.699735 65.97597,33.591499 6.89002,9.344554 12.38489,20.219194 14.25655,31.749994 0.33866,2.08598 0.67283,4.23519 0.72258,6.35 0.0267,1.12845 -0.29581,2.79162 0.27887,3.81371 0.37941,0.67521 1.17078,0.65087 1.8452,0.68421 0,-11.65225 -2.82416,-22.86503 -8.49815,-33.07291 -6.78021,-12.19809 -15.85436,-22.915302 -27.48518,-30.746703 -24.9809,-16.820065 -58.26707,-18.894769 -85.19584,-5.430309 -8.17403,4.087019 -15.51781,9.621838 -21.96041,16.068675 -6.95219,6.956689 -12.60661,15.311701 -16.51635,24.341667 -4.02537,9.29719 -6.74979,19.71199 -6.76672,29.89791 -0.0212,12.65449 2.14603,24.63112 7.29191,36.24792 5.72215,12.91722 15.37918,24.25012 26.83907,32.4223 13.94011,9.94093 30.46757,15.62391 47.625,15.73186 m 77.7875,-78.84583 c -0.046,0.91282 -0.56462,1.88119 0.52917,2.11667 -0.54001,0.65326 -1.07474,1.28826 -1.32001,2.11852 -1.35757,4.59449 6.68999,6.58442 7.73404,1.84997 0.20108,-0.91202 -0.0691,-1.77853 -0.32861,-2.64557 0.97922,-0.34423 1.41684,-1.53564 0.22542,-2.02592 -2.02115,-0.83158 -4.67942,-1.13453 -6.84001,-1.41367 m 2.66383,2.83237 c 2.51751,-0.47096 3.65442,3.20622 1.02896,3.83513 -2.58259,0.61886 -3.80338,-3.31628 -1.02896,-3.83513 m -5.83883,10.13222 0.26459,2.64583 -1.05834,-0.26458 -0.52916,1.85208 5.02682,1.68143 2.17937,0.28839 0.73131,-1.44065 -4.10528,-1.77377 -2.50931,-2.98873 m 1.05834,12.17083 c -0.78105,1.99681 -0.36037,4.27302 -2.91042,4.7625 l 2.38125,-5.29167 c -1.32556,-0.67204 -2.80696,-1.08902 -4.21508,-0.34501 -2.65192,1.40149 -2.65139,5.09217 -0.27146,6.71247 3.87403,2.63737 8.26162,-2.47438 5.01571,-5.83829 m -2.91042,0.52917 -1.32292,3.43958 c -1.41975,-1.55258 -0.62944,-3.06784 1.32292,-3.43958 m -8.99583,10.05416 -1.85209,-1.05833 -0.79375,1.85208 1.05834,1.85209 2.91041,0.85407 3.70047,1.50072 2.38495,-1.82563 v -0.26458 l -1.5875,-0.79375 c -1.57612,1.27 -2.95884,-0.37121 -4.49792,-1.05833 l 0.79375,-1.85209 c -1.05648,-0.2831 -1.48166,-0.0889 -2.11666,0.79375 m -8.46667,11.64167 c -1.4015,0.2204 -1.71,1.18639 -0.72893,2.26377 1.34356,1.47585 3.00329,2.69108 4.4331,4.08623 h 0.26458 c 1.90368,-2.71172 -1.85605,-3.14749 -2.30981,-5.55202 -0.50377,-2.66859 2.7305,-1.19274 3.63246,-0.44106 0.86043,0.71702 1.59544,1.35599 2.6461,1.75974 1.02288,-2.42728 -2.59847,-5.50941 -5.0255,-5.31415 -1.75974,0.14182 -2.58815,1.65603 -2.912,3.19749 m -7.9375,6.35 0.26458,1.05833 c -0.73554,0.0971 -1.44277,0.2077 -2.08412,0.6141 -4.67677,2.9636 2.03518,10.36082 5.25145,5.70944 0.33734,-0.48762 0.43074,-0.99324 0.53684,-1.56104 l 0.79375,0.52917 h 0.26458 l 1.32292,-1.05834 c -1.23243,-1.99892 -3.66369,-6.43043 -6.35,-5.29166 m 0.27437,2.62281 c 2.36644,-0.43656 3.53219,3.45705 1.02897,4.04839 -2.47412,0.58473 -3.73089,-3.54991 -1.02897,-4.04839 m -6.88895,9.28344 c -1.41817,0.46355 -2.12408,2.27092 -3.46287,2.52439 -1.49648,0.2831 -2.95222,-1.95845 -2.06745,-3.20067 0.72919,-1.02394 2.82098,-0.96599 3.94282,-1.44039 v -0.52917 c -1.01759,-0.51567 -2.01348,-0.88661 -3.17474,-0.65722 -2.76728,0.54663 -3.88673,3.59648 -2.50269,5.93963 1.41499,2.39607 4.72096,2.66806 6.45821,0.43101 0.70035,-0.9017 0.77603,-1.97274 0.80672,-3.06758 m -12.17084,6.61458 c -1.87034,0.60484 -3.67982,3.38667 -5.29166,1.05833 l 5.02708,-1.85208 c -0.30004,-1.13268 -0.79957,-2.14365 -1.88119,-2.72627 -2.5527,-1.37477 -5.87904,0.60987 -5.72558,3.52002 0.27464,5.20488 7.36917,4.99295 7.87135,0 m -2.64583,-1.85208 v 0.52916 l -3.43958,1.32292 c 0.30929,-1.96162 1.64914,-2.55482 3.43958,-1.85208 m -17.72708,10.84791 c 1.41261,-0.22383 2.89216,-0.51646 4.2328,-1.02552 4.93078,-1.87166 3.82244,-9.47076 -1.58697,-9.50542 -1.11151,-0.007 -3.96901,0.18203 -4.454,1.41102 -0.32094,0.81307 0.1278,1.96956 0.322,2.76992 0.51171,2.10873 1.14644,4.20503 1.48617,6.35 m 1.5875,-2.11666 -1.32292,-6.35 c 1.15782,-0.1995 2.5609,-0.49583 3.64411,0.12594 1.68354,0.96652 2.05052,3.64305 0.69797,5.01121 -0.80275,0.812 -1.93966,1.03452 -3.01916,1.21285 z"
       id="path977" /></g></svg>
