<?xml version="1.0" encoding="UTF-8" standalone="no"?>
<!-- Created with Inkscape (http://www.inkscape.org/) -->

<svg
   version="1.1"
   id="svg233"
   width="631.57208"
   height="627.02661"
   viewBox="0 0 631.57208 627.02661"
   sodipodi:docname="canstockphoto28095019.png"
   xml:space="preserve"
   xmlns:inkscape="http://www.inkscape.org/namespaces/inkscape"
   xmlns:sodipodi="http://sodipodi.sourceforge.net/DTD/sodipodi-0.dtd"
   xmlns="http://www.w3.org/2000/svg"
   xmlns:svg="http://www.w3.org/2000/svg"><defs
     id="defs237" /><sodipodi:namedview
     id="namedview235"
     pagecolor="#ffffff"
     bordercolor="#666666"
     borderopacity="1.0"
     inkscape:showpageshadow="2"
     inkscape:pageopacity="0.0"
     inkscape:pagecheckerboard="0"
     inkscape:deskcolor="#d1d1d1"
     showgrid="false" /><g
     inkscape:groupmode="layer"
     inkscape:label="Image"
     id="g239"
     transform="translate(933.56757,387.97455)"><path
       style="fill:#464a79;stroke:none;stroke-width:1.72089"
       d="m -694.94776,-304.88039 c 7.68235,22.05088 19.36233,42.43152 27.23343,64.4406 15.12666,42.30438 17.40858,86.6848 0.53903,128.88119 -6.56351,16.418424 -16.26423,30.779964 -26.07207,45.282585 53.49084,-44.622505 51.97579,-121.959925 29.79932,-182.871965 -6.5669,-18.03291 -14.47541,-45.54434 -31.49971,-55.73241 m 52.71206,3.48328 v 1.74163 l 95.2218,1.74164 c -31.95712,64.56425 -62.96541,139.47209 -30.80085,210.73817 16.13159,35.740147 46.08394,52.350146 75.00416,75.428588 7.76738,6.1967476 25.09775,19.4314531 18.93044,31.582858 -3.16443,6.236805 -11.06783,8.323287 -17.22665,9.653899 -14.26966,3.08444 -27.60752,2.666446 -42.02851,2.082998 -57.93397,-2.349469 -111.43331,-28.8728698 -170.51673,-18.313321 -17.39328,3.110566 -35.86972,6.774971 -50.95387,16.660507 -6.43597,4.218246 -13.91939,10.277404 -14.32068,18.797496 -0.4489,9.55985 8.07175,17.911003 14.34789,23.837796 17.73676,16.751072 40.14279,26.634869 62.82938,34.108229 59.35379,19.55337 124.86468,17.88488 183.64204,-2.86847 25.01442,-8.83359 56.43761,-25.995688 65.59931,-53.381199 7.36949,-22.024752 -5.6759,-42.4855109 -21.4164,-56.4133887 -31.04231,-27.4673683 -68.56479,-43.3423963 -90.09343,-81.1759923 -25.33239,-44.51452 -22.96545,-99.05564 -5.95986,-146.29756 8.96955,-24.91936 22.48255,-47.34817 33.16609,-71.40716 z"
       id="path351" /><path
       style="fill:#3a4465;stroke:none"
       d="m -624.568,230.05206 v -8 c -40.89,-0.012 -81.787,-8.788 -119,-25.732 -47.953,-21.833 -90.683,-55.126 -122.452,-97.268 -70.539,-93.57 -79.079,-223.284 -20.822,-325 17.725,-30.949 41.038,-58.789 68.274,-81.826 32.169,-27.209 69.835,-47.003 110,-59.482 125.564,-39.0119 267.785,10.501 342.919,118.308 24.073,34.541 43.5,73.143 50.308,115 1.286,7.908 2.451,15.984 2.708,24 0.138,4.279 -0.915,10.27 1.389,14.111 1.458,2.431 4.144,2.602 6.676,2.889 0,-44.04 -10.712,-86.411 -32.116,-125 -25.559,-46.083 -59.96,-86.631 -103.884,-116.168 -94.503,-63.5489 -220.135,-71.4648 -322,-20.532 -30.396,15.198 -58.032,35.701 -81.999,59.7 -26.195,26.232 -47.396,57.145 -62.532,91 -16.234,36.311 -26.397,77.083 -26.468,117 -0.083,47.367 8.519,92.656 28.007,136 21.9,48.707 58.468,91.554 101.992,122.219 52.992,37.334 114.185,57.702 179,58.781 m 294,-298 c -0.174,3.45 -2.134,7.11 2,8 -2.106,2.772 -4.253,5.52 -4.97,9.018 -3.345,16.313 23.617,22.772 28.666,6.952 1.186,-3.714 0.275,-7.339 -0.696,-10.97 3.701,-1.301 5.355,-5.804 0.852,-7.657 -7.639,-3.143 -17.686,-4.288 -25.852,-5.343 m 10.153,11.058 c 8.963,-1.682 13.059,11.441 3.721,13.736 -9.25,2.272 -13.635,-11.874 -3.721,-13.736 m -22.153,37.942 1,10 -4,-1 -2,7 c 7.961,2.635 26.233,13.385 30,2 l -15.231,-6.91 -9.769,-11.09 m 4,46 c -2.743,7.618 -1.98,15.438 -11,18 l 9,-20 c -4.776,-2.161 -9.806,-3.723 -14.904,-1.474 -10.565,4.661 -11.105,18.983 -1.968,25.279 14.793,10.193 29.71,-8.732 18.872,-21.805 m -11,2 -5,13 c -4.509,-6.134 -2.048,-11.013 5,-13 m -34,38 -7,-4 -3,7 4,7 11.005,3.402 13.946,5.092 9.049,-6.494 v -1 l -6,-3 c -6.238,3.694 -11.263,-1.184 -17,-4 l 3,-7 -8,3 m -32,44 c -5.402,1.762 -5.34,5.378 -1.662,9.437 4.753,5.245 10.552,9.659 15.662,14.563 h 1 c 5.68,-10.231 -6.626,-11.927 -8.14,-20.931 -1.714,-10.193 10.917,-3.402 14.121,-0.866 2.907,2.3 5.665,4.221 9.019,5.797 2.856,-9.572 -10.27,-21.377 -19.95,-19.639 -5.998,1.077 -8.623,6.327 -10.05,11.639 m -30,24 1,4 c -2.748,0.502 -5.398,1.014 -7.774,2.59 -16.455,10.92 6.003,37.22 18.803,22.05 1.673,-1.983 2.31,-4.196 2.971,-6.64 l 3,2 h 1 l 5,-4 c -5.019,-7.734 -13.299,-23.24 -24,-20 m 1.1,10.367 c 8.509,-1.608 12.682,12.355 3.722,14.41 -8.842,2.028 -13.289,-12.603 -3.722,-14.41 m -26.1,34.633 c -4.697,1.96 -8.376,8.19 -13.173,8.984 -5.418,0.897 -10.486,-6.687 -7.32,-11.269 2.697,-3.905 10.307,-4.098 14.493,-5.715 v -2 c -2.918,-1.318 -5.749,-2.536 -9.018,-2.54 -2.391,-0.003 -4.766,0.573 -6.883,1.688 -17.105,9.015 -1.882,36.1 14.679,25.815 2.093,-1.301 3.861,-3.076 5.078,-5.224 1.708,-3.017 1.947,-6.361 2.144,-9.739 m -46,25 c -7.066,2.67 -13.34,11.467 -20,4 l 19,-7 c -1.5,-4.465 -3.61,-8.442 -8.135,-10.479 -9.427,-4.244 -20.882,3.04 -20.41,13.479 0.504,11.144 12.51,18.689 22.381,12.482 4.593,-2.888 6.359,-7.373 7.164,-12.482 m -10,-7 v 2 l -13,5 c 1.786,-7.029 6.197,-9.058 13,-7 m -67,41 c 5.67,-0.996 11.694,-2.049 16.972,-4.43 16.375,-7.386 13.601,-33.075 -4.972,-35.109 -4.779,-0.524 -16.154,0.039 -18.423,5.315 -1.433,3.33 0.264,7.921 1.061,11.224 1.846,7.654 3.998,15.24 5.362,23 m 6,-8 -5,-24 c 4.428,-0.678 9.527,-1.614 13.618,0.802 6.244,3.688 7.587,13.213 2.557,18.397 -2.984,3.075 -7.138,4.002 -11.175,4.801 z"
       id="path538" /></g></svg>
